# xmcd
#
# Track frame offsets:
#       150
#       11323
#       22965
#       40118
#       57670
#       70490
#       85893
#       101793
#       120293
#       133365
#       145398
#       156205
#       173983
#       186233
#
# Disc length: 2673 seconds
#
# Revision: 1
# Processed by: cddbd v1.5.1PL0 Copyright (c) Steve Scherf et al.
# Submitted via: MusiCat 1.1
#
DISCID=c40a6f0e
DTITLE=Vários - Grandes músicas brasileiras
DYEAR=1900
DGENRE=
TTITLE0=Carinhoso
TTITLE1=Dora
TTITLE2=Hoje
TTITLE3=Maria Bethânia
TTITLE4=No rancho fundo
TTITLE5=Aquarela do Brasil
TTITLE6=Chão de estrelas
TTITLE7=Coração de estudante
TTITLE8=Favela
TTITLE9=Não me diga adeus
TTITLE10=Na baixa do sapateiro
TTITLE11=Coração materno
TTITLE12=Eu sonhei que tu estavas tão linda
TTITLE13=Última inspiração
EXTD=\n\n
EXTT0=
EXTT1=
EXTT2=
EXTT3=
EXTT4=
EXTT5=
EXTT6=
EXTT7=
EXTT8=
EXTT9=
EXTT10=
EXTT11=
EXTT12=
EXTT13=
PLAYORDER=
